# xmcd
#
# Track frame offsets: 
#        150
#        14108
#        26042
#        38707
#        52225
#        67025
#        78793
#        92510
#        105233
#        117908
#        129034
#        145250
#        158171
#        167841
#        180722
#        193409
#        206859
#        220517
#        233661
#        245534
#
# Disc length: 3419 seconds
#
# Revision: 4
# Processed by: cddbd v1.5.2PL0 Copyright (c) Steve Scherf et al.
# Submitted via: ExactAudioCopyFreeDBPlugin 1.0
#
DISCID=160d5914
DTITLE=Various Artist - Slide
DYEAR=1998
DGENRE=Country
TTITLE0=Lloyd Green - Tara Theme
TTITLE1=Weldon Myrick - Canadian Sunset
TTITLE2=Jimmie Crawford - If
TTITLE3=Hal Rugg - Mack The Knife
TTITLE4=Bill West - It's All In The Game
TTITLE5=John Hughey - True Love
TTITLE6=Doyle Grisham - Moon River
TTITLE7=Paul Franklin - Blueberry Hill
TTITLE8=Jeff Newman - If I Didn't Care
TTITLE9=Larry Sasser - Sleepwalk
TTITLE10=Jimmie Crawford - Lady Of Spain
TTITLE11=John Hughey - September Song
TTITLE12=Bill West - Winchester Cathedral
TTITLE13=Jeff Newman - Nighttrain
TTITLE14=Doyle Grisham - My Blue Heaven
TTITLE15=Hal Rugg - Don't Get Around Much Anymore
TTITLE16=Paul Franklin - Days Of Wine And Roses
TTITLE17=Lloyd Green - Mona Lisa
TTITLE18=Larry Sasser - As Time Goes By
TTITLE19=Weldon Myrick - Sincerely
EXTD=
EXTT0=
EXTT1=
EXTT2=
EXTT3=
EXTT4=
EXTT5=
EXTT6=
EXTT7=
EXTT8=
EXTT9=
EXTT10=
EXTT11=
EXTT12=
EXTT13=
EXTT14=
EXTT15=
EXTT16=
EXTT17=
EXTT18=
EXTT19=
PLAYORDER=
